<svg width="29" height="52" viewBox="0 0 29 52" fill="none" xmlns="http://www.w3.org/2000/svg">
<path d="M14.6132 13.3063V23.7056C17.6669 21.7248 24.2697 17.367 26.2505 15.7823C28.2313 14.1977 28.5614 12.1508 28.4789 11.3255V0.926178C25.8378 2.6594 19.9614 6.522 17.5844 8.10665C15.2074 9.69131 14.6132 12.2334 14.6132 13.3063Z" fill="#F6F6F6" stroke="#F6F6F6"/>
<path d="M14.118 24.2009L13.8704 37.5714C10.8166 35.5906 4.72048 31.2328 2.73966 29.6481C0.758838 28.0635 0.428701 26.0166 0.511235 25.1913V14.792L14.118 24.2009Z" fill="#F6F6F6" stroke="#F6F6F6"/>
<path d="M14.3656 37.5713V50.9418C17.4193 48.961 24.0221 44.6032 26.0029 43.0186C27.9837 41.4339 28.3139 39.3871 28.2313 38.5617V28.1624L14.3656 37.5713Z" fill="#F6F6F6" stroke="#F6F6F6"/>
</svg>
