<svg width="263" height="52" viewBox="0 0 263 52" fill="none" xmlns="http://www.w3.org/2000/svg">
<path d="M14.6132 13.3063V23.7056C17.6669 21.7248 24.2697 17.367 26.2505 15.7823C28.2313 14.1977 28.5614 12.1508 28.4789 11.3255V0.926178C25.8378 2.6594 19.9614 6.522 17.5844 8.10665C15.2074 9.69131 14.6132 12.2334 14.6132 13.3063Z" fill="#F6F6F6" stroke="#F6F6F6"/>
<path d="M14.118 24.2009L13.8704 37.5714C10.8166 35.5906 4.72048 31.2328 2.73966 29.6481C0.758838 28.0635 0.428701 26.0166 0.511235 25.1913V14.792L14.118 24.2009Z" fill="#F6F6F6" stroke="#F6F6F6"/>
<path d="M14.3656 37.5713V50.9418C17.4193 48.961 24.0221 44.6032 26.0029 43.0186C27.9837 41.4339 28.3139 39.3871 28.2313 38.5617V28.1624L14.3656 37.5713Z" fill="#F6F6F6" stroke="#F6F6F6"/>
<path d="M249.014 39.6607H233.272L230.748 47.1112H219.993L235.255 4.93182H247.151L262.413 47.1112H251.538L249.014 39.6607ZM246.37 31.7295L241.143 16.2878L235.976 31.7295H246.37Z" fill="#F6F6F6"/>
<path d="M215.311 4.93182V47.1112H205.037V4.93182H215.311Z" fill="#F6F6F6"/>
<path d="M199.88 4.93182V13.1634H188.705V47.1112H178.43V13.1634H167.255V4.93182H199.88Z" fill="#F6F6F6"/>
<path d="M164.189 18.5109C164.189 20.9544 163.628 23.1975 162.506 25.2404C161.385 27.2432 159.662 28.8655 157.339 30.1072C155.016 31.349 152.132 31.9699 148.687 31.9699H142.318V47.1112H132.044V4.93182H148.687C152.052 4.93182 154.896 5.51263 157.219 6.67427C159.542 7.8359 161.285 9.43815 162.446 11.481C163.608 13.5239 164.189 15.8672 164.189 18.5109ZM147.906 23.7984C149.869 23.7984 151.331 23.3377 152.292 22.4164C153.253 21.4951 153.734 20.1933 153.734 18.5109C153.734 16.8286 153.253 15.5267 152.292 14.6054C151.331 13.6841 149.869 13.2235 147.906 13.2235H142.318V23.7984H147.906Z" fill="#F6F6F6"/>
<path d="M114 39.6607H98.2576L95.7341 47.1112H84.979L100.24 4.93182H112.137L127.399 47.1112H116.523L114 39.6607ZM111.356 31.7295L106.129 16.2878L100.961 31.7295H111.356Z" fill="#F6F6F6"/>
<path d="M70.3024 47.1112L56.1225 28.485V47.1112H45.848V4.93184H56.1225V23.4379L70.1823 4.93184H82.2593L65.9163 25.6009L82.8601 47.1112H70.3024Z" fill="#F6F6F6"/>
</svg>
